<svg xmlns="http://www.w3.org/2000/svg" xmlns:xlink="http://www.w3.org/1999/xlink" viewBox="0 0 226.5 210.91"><defs><style>.a{fill:#2f361f;}.b{fill:url(#a);}.c{fill:url(#b);}.d{fill:url(#c);}.e{fill:none;}</style><linearGradient id="a" x1="70.81" y1="0.54" x2="84.88" y2="30.71" gradientUnits="userSpaceOnUse"><stop offset="0" stop-color="#dfd25f"/><stop offset="0.11" stop-color="#dfd25f"/><stop offset="0.33" stop-color="#d9ce5d"/><stop offset="0.85" stop-color="#8b9f43"/><stop offset="1" stop-color="#8b9f43"/></linearGradient><linearGradient id="b" x1="104.11" y1="22.43" x2="120.99" y2="32.17" gradientUnits="userSpaceOnUse"><stop offset="0" stop-color="#8b9f43"/><stop offset="0.15" stop-color="#8b9f43"/><stop offset="0.4" stop-color="#869941"/><stop offset="0.95" stop-color="#2f361f"/><stop offset="1" stop-color="#2f361f"/></linearGradient><linearGradient id="c" x1="71.29" y1="22.4" x2="158.04" y2="208.44" gradientUnits="userSpaceOnUse"><stop offset="0" stop-color="#e4a554"/><stop offset="0.11" stop-color="#e8854c"/><stop offset="0.52" stop-color="#ee5541"/><stop offset="0.87" stop-color="#ee5541"/></linearGradient></defs><path class="a" d="M119.29,204.65l9.18,5.6a14.92,14.92,0,0,1-12.37-3.63l4.14,3.7a11.88,11.88,0,0,1-7.07-3.71l1,4.22a6.51,6.51,0,0,1-3.12-5.5,19.79,19.79,0,0,1-9.68,5.58l7.3-6.45a35.76,35.76,0,0,1-17.33,5.94,15,15,0,0,1,9.19-4.86c4.08-.53,8-3.42,12.1-2.94A18.69,18.69,0,0,1,119.29,204.65Z"/><path class="b" d="M108.27,19.8c-3.89-2.71-9-6.27-13.69-7.06C87,11.44,79.68,11.62,72,11.43A48,48,0,0,0,49.81,16.3a.25.25,0,0,1-.31-.37A45.09,45.09,0,0,1,69.37,1.35,21.82,21.82,0,0,1,81,.37c13,2.4,22.89,7,27.3,19.43"/><path class="c" d="M115.5,41.67a54.37,54.37,0,0,1,3.79-26.61c-2-2.6-6.4-4-9.41-2.62-3.23,7.86-3.3,20.94-1.44,29.23C110.78,41.79,113.17,41.56,115.5,41.67Z"/><path class="d" d="M116,40.81c26.35-9.89,58.35-13.89,82.35,5.11,19,14,27,35,28,57,2,33-11,67-37,90-10,8-20,14-33,16-14,2-27,0-41-3h-9c-17,3-33,4-49-1-11-4-20-11-29-19-22-23-30-54-28-85a103.62,103.62,0,0,1,11-38c5-9,12-16,21-22,25-15,53-6,77.67.08A10.49,10.49,0,0,0,116,40.81Z"/><path class="e" d="M39.22,181.77c18.15,10.75,24,10.82,34.61,11.64,12.45,1,19.19-3.81,37.55-3.07,21.65.89,21.55,4.38,34,4,10.7-.32,24,2.67,43.11-12.12"/><path class="e" d="M9.52,126q99.68,2.31,201.32-3.49l4-.24"/></svg>