<svg xmlns="http://www.w3.org/2000/svg" xmlns:xlink="http://www.w3.org/1999/xlink" viewBox="0 0 226.5 210.91"><defs><style>.a{fill:#2f361f;}.b{fill:url(#a);}.c{fill:url(#b);}.d{fill:url(#c);}.e{fill:#dfd25f;}</style><linearGradient id="a" x1="134.1" y1="53.23" x2="150.97" y2="62.97" gradientUnits="userSpaceOnUse"><stop offset="0" stop-color="#8b9f43"/><stop offset="0.15" stop-color="#8b9f43"/><stop offset="0.4" stop-color="#869941"/><stop offset="0.95" stop-color="#2f361f"/><stop offset="1" stop-color="#2f361f"/></linearGradient><linearGradient id="b" x1="101.28" y1="53.2" x2="188.03" y2="239.24" gradientUnits="userSpaceOnUse"><stop offset="0" stop-color="#e4a554"/><stop offset="0.11" stop-color="#e8854c"/><stop offset="0.52" stop-color="#ee5541"/><stop offset="0.87" stop-color="#ee5541"/></linearGradient><linearGradient id="c" x1="100.8" y1="31.33" x2="114.87" y2="61.51" gradientUnits="userSpaceOnUse"><stop offset="0" stop-color="#dfd25f"/><stop offset="0.11" stop-color="#dfd25f"/><stop offset="0.33" stop-color="#d9ce5d"/><stop offset="0.85" stop-color="#8b9f43"/><stop offset="1" stop-color="#8b9f43"/></linearGradient></defs><path class="a" d="M149.28,235.45l9.18,5.6a14.94,14.94,0,0,1-12.37-3.63l4.14,3.7a11.84,11.84,0,0,1-7.07-3.72l1,4.23a6.5,6.5,0,0,1-3.11-5.5,19.79,19.79,0,0,1-9.68,5.58l7.3-6.45a35.76,35.76,0,0,1-17.33,5.94,15,15,0,0,1,9.19-4.86c4.08-.53,8-3.43,12.1-2.94A18.55,18.55,0,0,1,149.28,235.45Z" transform="translate(-29.99 -30.8)"/><path class="b" d="M145.49,72.47a54.37,54.37,0,0,1,3.79-26.61c-2-2.6-6.41-4-9.41-2.62-3.23,7.85-3.3,20.94-1.44,29.23C140.76,72.58,143.16,72.36,145.49,72.47Z" transform="translate(-29.99 -30.8)"/><path class="c" d="M145.94,71.61c26.34-9.89,58.34-13.89,82.34,5.11,19,14,27,35,28,57,2,33-11,67-37,90-10,8-20,14-33,16-14,2-27,0-41-3h-9c-17,3-33,4-49-1-11-4-20-11-29-19-22-23-30-54-28-85a103.62,103.62,0,0,1,11-38c5-9,12-16,21-22,25-15,53-6,77.67.08A10.52,10.52,0,0,0,145.94,71.61Z" transform="translate(-29.99 -30.8)"/><path class="d" d="M138.25,50.6c-3.88-2.72-9-6.27-13.68-7.06-7.61-1.3-14.9-1.13-22.62-1.31A48,48,0,0,0,79.8,47.1a.25.25,0,0,1-.31-.37A45.09,45.09,0,0,1,99.36,32.15a21.82,21.82,0,0,1,11.6-1c13,2.4,22.89,7,27.29,19.43" transform="translate(-29.99 -30.8)"/><path class="e" d="M83.28,89.05Q73,90.55,62.74,92.58c-.58,3.83-1.07,7.66-1.44,11.49q8.73-1.41,17.48-2.5a4.9,4.9,0,0,1,3.56.54,2.69,2.69,0,0,1,1,2.49A3.74,3.74,0,0,1,82,107.34a6.56,6.56,0,0,1-3.68,1.35q-8.81,1-17.61,2.2c-.32,4.92-.48,9.84-.45,14.75a5.84,5.84,0,0,1-1.45,4.29A5.9,5.9,0,0,1,55,131.62a5.43,5.43,0,0,1-3.93-1,4.62,4.62,0,0,1-1.57-3.87,176.53,176.53,0,0,1,3-33.39,8.82,8.82,0,0,1,1.27-3.26,7.31,7.31,0,0,1,2.42-2.26A13.54,13.54,0,0,1,60,86.45q12.09-2.82,24.2-4.81c1.63-.26,2.81-.11,3.52.45a2.63,2.63,0,0,1,.9,2.52,4.44,4.44,0,0,1-1.49,2.89A7,7,0,0,1,83.28,89.05Z" transform="translate(-29.99 -30.8)"/><path class="e" d="M129.86,85q-11.75.33-23.48,1.36c-.25,4-.46,8-.62,12.06q11-.8,22-1.09a5.21,5.21,0,0,1,3.61,1,3.34,3.34,0,0,1,1.18,2.72,3.65,3.65,0,0,1-1.21,2.79,5.49,5.49,0,0,1-3.68,1.15q-11.08.26-22.17,1-.19,7-.21,13.89,12.52-.58,25-.76a5.64,5.64,0,0,1,3.82,1.06,3.89,3.89,0,0,1,0,5.78,5.82,5.82,0,0,1-3.82,1.13q-14.59.16-29.19.79c-2.34.09-4-.3-5.07-1.19s-1.56-2.37-1.56-4.47q0-18,1.55-36.28a8.91,8.91,0,0,1,1-3.54,5.42,5.42,0,0,1,2.24-2.21,10.1,10.1,0,0,1,3.64-1q13.54-1.48,27.1-1.91a5.07,5.07,0,0,1,3.63,1A3.5,3.5,0,0,1,134.82,81a3.71,3.71,0,0,1-1.24,2.88A5.67,5.67,0,0,1,129.86,85Z" transform="translate(-29.99 -30.8)"/><path class="e" d="M173.66,83.71q.81,12.93,1.07,25.75a41.46,41.46,0,0,1-.22,5.66,15.49,15.49,0,0,1-1.37,4.67,12.62,12.62,0,0,1-6,6.09,21.19,21.19,0,0,1-10.15,2,23,23,0,0,1-9-1.69,13,13,0,0,1-5.81-5.17,18.07,18.07,0,0,1-1.88-4.38,16.81,16.81,0,0,1-.72-4.71,4.62,4.62,0,0,1,1.41-3.64,5.13,5.13,0,0,1,3.6-1.25,4.2,4.2,0,0,1,3.21,1.19,7.88,7.88,0,0,1,1.68,3.62,33,33,0,0,0,1.24,4.18,6.35,6.35,0,0,0,2.07,2.71A6.81,6.81,0,0,0,157,120c4.75.1,7.14-3,7.07-9.54q-.17-13.68-.74-27.46a6.21,6.21,0,0,1,1.16-4.51,4.16,4.16,0,0,1,3.63-1.26A5.69,5.69,0,0,1,172,79,7.41,7.41,0,0,1,173.66,83.71Z" transform="translate(-29.99 -30.8)"/><path class="e" d="M187.59,121.05c.43-.37.85-.75,1.27-1.13a25.32,25.32,0,0,1-3.72-7.46,34.41,34.41,0,0,1-1.46-8.84,29.89,29.89,0,0,1,1.2-10.1,17.51,17.51,0,0,1,4.34-7.38,14.84,14.84,0,0,1,7.27-3.85,24.77,24.77,0,0,1,10.13.12,39.89,39.89,0,0,1,9.06,2.86,36.9,36.9,0,0,1,7.73,4.79l.75-.65a12.38,12.38,0,0,1,2.8-1.88,3.37,3.37,0,0,1,2.18-.11,4.34,4.34,0,0,1,1.94,1.08,3.68,3.68,0,0,1,1.07,1.85c.25,1.18-.49,2.41-2.29,3.8l-1.21.95a27.74,27.74,0,0,1,6.6,15.14,18.93,18.93,0,0,1-1,8.8,15.43,15.43,0,0,1-4.85,6.52,21.34,21.34,0,0,1-8.23,3.9,35.36,35.36,0,0,1-11.15.79c-6.85-.48-12.34-2.29-16.54-5.58l-.81.83c-.58.53-1.2,1.07-1.84,1.63a8.79,8.79,0,0,1-1.94,1.32,4.41,4.41,0,0,1-2.2.42,2.68,2.68,0,0,1-1.9-.85,2.42,2.42,0,0,1-.75-1.71,4.28,4.28,0,0,1,.87-2.49A18.7,18.7,0,0,1,187.59,121.05Zm8.79-7.75c7.54-6.69,14.76-13,21.36-18.57a18.41,18.41,0,0,0-4.52-3,19.69,19.69,0,0,0-5.39-1.77,12.39,12.39,0,0,0-7.49.71,9.24,9.24,0,0,0-4.61,5.07,20.27,20.27,0,0,0-1.24,8.89A25.2,25.2,0,0,0,196.38,113.3Zm25.73-12.87c-6.77,5.54-14.12,11.73-21.76,18.35a16.29,16.29,0,0,0,9.66,4.06,16,16,0,0,0,7.57-1.06A10.64,10.64,0,0,0,223,117a14.66,14.66,0,0,0,1.49-8.61A21.07,21.07,0,0,0,222.11,100.43Z" transform="translate(-29.99 -30.8)"/><path class="e" d="M72.42,141.13q-10.5.51-21,1.16.53,5.55,1.39,11.09,8.66-.25,17.29-.46a6.1,6.1,0,0,1,3.7.87,3.5,3.5,0,0,1,1.48,2.53,2.72,2.72,0,0,1-.86,2.54,5,5,0,0,1-3.39,1L54,160c.93,4.75,2,9.51,3.37,14.25.5,1.81.43,3.14-.21,4A3.42,3.42,0,0,1,54,179.3a7.24,7.24,0,0,1-4-1.48,7.78,7.78,0,0,1-2.66-4,155.94,155.94,0,0,1-6.76-32.21,5.57,5.57,0,0,1,.42-3,4,4,0,0,1,2-1.89,11.2,11.2,0,0,1,3.71-.86Q59.39,134.76,72,134a6,6,0,0,1,3.85.76,3.19,3.19,0,0,1,1.36,2.54,3.22,3.22,0,0,1-1.1,2.7A5.91,5.91,0,0,1,72.42,141.13Z" transform="translate(-29.99 -30.8)"/><path class="e" d="M120.06,139.65q-12,.16-24,.55.25,5.87.66,11.73,10.9-.18,21.79-.26a5.45,5.45,0,0,1,3.62,1,3.69,3.69,0,0,1,.2,5.39,5,5,0,0,1-3.52,1.05q-10.76,0-21.51.09.6,6.77,1.41,13.51,11.69.15,23.38.22a5.41,5.41,0,0,1,3.61,1.1A3.84,3.84,0,0,1,127,176.9a3.48,3.48,0,0,1-1.06,2.79,4.73,4.73,0,0,1-3.43,1q-13.31-.15-26.63-.5a7.55,7.55,0,0,1-4.83-1.5,7.12,7.12,0,0,1-2.13-4.46,332.81,332.81,0,0,1-3.62-35.21,7,7,0,0,1,.54-3.39,4.14,4.14,0,0,1,2.08-2,10.1,10.1,0,0,1,3.71-.77q14.16-.65,28.31-.92a5.76,5.76,0,0,1,3.82,1,3.42,3.42,0,0,1,1.27,2.75,3.46,3.46,0,0,1-1.2,2.82A5.74,5.74,0,0,1,120.06,139.65Z" transform="translate(-29.99 -30.8)"/><path class="e" d="M151.52,173.47c-2.34-10.33-5-20.74-7.77-31.22q-.06,17-.18,33.83a6.19,6.19,0,0,1-1.27,4.19,4.18,4.18,0,0,1-3.28,1.39,4.22,4.22,0,0,1-3.25-1.38,6.23,6.23,0,0,1-1.34-4.21q-.37-19.26-.49-38.78,0-3.22,1.78-4.37a9,9,0,0,1,4.87-1.14h3.33a13.23,13.23,0,0,1,4.34.53,3.56,3.56,0,0,1,2,1.83,27.1,27.1,0,0,1,1.44,4.28c2.47,9,4.81,18,6.9,26.87,2.81-8.89,5.66-17.79,8.41-26.66a26.75,26.75,0,0,1,1.56-4.2,3.49,3.49,0,0,1,2-1.75,13.14,13.14,0,0,1,4.35-.37l3.33.1a9.4,9.4,0,0,1,4.84,1.28q1.78,1.17,1.67,4.31-.69,19-3,37.73a6.75,6.75,0,0,1-1.77,4.1,4.92,4.92,0,0,1-3.48,1.44,3.63,3.63,0,0,1-3-1.3,5.53,5.53,0,0,1-.85-4.1q1.58-16.55,2.19-33.27c-3.18,10.23-6.54,20.51-9.88,30.79-.65,2-1.17,3.48-1.56,4.42a7,7,0,0,1-1.95,2.57,5.45,5.45,0,0,1-3.63,1.19,4.88,4.88,0,0,1-4.63-2.6,10.28,10.28,0,0,1-1-2.56C152,175.47,151.76,174.49,151.52,173.47Z" transform="translate(-29.99 -30.8)"/><path class="e" d="M193.36,173.22l1.37-1.19a20.65,20.65,0,0,1-2.45-7,32.58,32.58,0,0,1-.22-8.5,30.54,30.54,0,0,1,2.54-9.93,21.71,21.71,0,0,1,5.5-7.51,21.33,21.33,0,0,1,8.3-4.38,31.44,31.44,0,0,1,10.9-.91,39,39,0,0,1,9.23,1.73,25.37,25.37,0,0,1,7.22,3.69c.34-.24.67-.49,1-.74a24.28,24.28,0,0,1,3.66-2.29,4.89,4.89,0,0,1,2.48-.44,2.94,2.94,0,0,1,1.84.78,2,2,0,0,1,.61,1.67c-.09,1.13-1.32,2.49-3.71,4.13L240,143.48c2.72,3.91,3.6,8.49,2.42,13.92a25.06,25.06,0,0,1-3.74,8.74,29.5,29.5,0,0,1-6.68,7,33.58,33.58,0,0,1-8.9,4.85,35.08,35.08,0,0,1-10.58,2.08c-6.23.28-10.91-1-14.27-3.8l-.89.87c-.63.56-1.29,1.14-2,1.73a11.6,11.6,0,0,1-2,1.43,4.41,4.41,0,0,1-2.08.57,1.84,1.84,0,0,1-1.62-.68,1.94,1.94,0,0,1-.43-1.6,5.18,5.18,0,0,1,1.17-2.48A23.61,23.61,0,0,1,193.36,173.22ZM203,165c8.47-7.16,17-14,25.43-20.37a12.34,12.34,0,0,0-4.08-2.43,17.65,17.65,0,0,0-5.34-1.12,15.83,15.83,0,0,0-8,1.47,13.32,13.32,0,0,0-5.65,5.37,22.29,22.29,0,0,0-2.72,8.77A22.94,22.94,0,0,0,203,165Zm28.59-15.34c-8.53,6.33-17.21,13.17-25.75,20.3a11,11,0,0,0,8.37,3A18.19,18.19,0,0,0,221.7,171a18.41,18.41,0,0,0,6.43-5.29,19.55,19.55,0,0,0,3.76-8.58A15.54,15.54,0,0,0,231.59,149.64Z" transform="translate(-29.99 -30.8)"/><path class="e" d="M92.83,224.34q-2-3-4-5.94-8-1.2-16-2.77.51,2.56,1.2,5.08a19.91,19.91,0,0,1,.83,3.86c0,.61-.55.77-1.62.47a10,10,0,0,1-3.23-1.85,13.29,13.29,0,0,1-2.87-2.92,9.59,9.59,0,0,1-.92-1.67,22.11,22.11,0,0,1-.78-2.3,76.31,76.31,0,0,1-2.78-25.79c0-.77.09-1.7.17-2.8a8.45,8.45,0,0,1,.59-2.72,3.48,3.48,0,0,1,1.59-1.7,6,6,0,0,1,3.13-.51,8.69,8.69,0,0,1,3.56.89,9.64,9.64,0,0,1,2.67,2,19.62,19.62,0,0,1,2,2.51c.61.9,1.4,2.09,2.38,3.58,6.74,10,13.55,20.18,20.08,30.49a26.4,26.4,0,0,1,2.76,5.08,3.52,3.52,0,0,1-.08,2.76,1.72,1.72,0,0,1-2,.91,4.33,4.33,0,0,1-1.62-.64,7.53,7.53,0,0,1-1.45-1.24,23.75,23.75,0,0,1-1.71-2.19C94,225.93,93.34,225.08,92.83,224.34ZM71.62,209.47q6.18,1,12.36,1.79c-4.38-6.43-8.77-12.79-13.09-19A97.7,97.7,0,0,0,71.62,209.47Z" transform="translate(-29.99 -30.8)"/><path class="e" d="M134.91,219.31a16.79,16.79,0,0,1-1.45,7.77,11.5,11.5,0,0,1-4.68,5.22,12.46,12.46,0,0,1-7.46,1.44,18.31,18.31,0,0,1-9.4-3.48,25.62,25.62,0,0,1-5.43-5.47,18.78,18.78,0,0,1-3.27-6.25,3.43,3.43,0,0,1,.28-2.84,2.38,2.38,0,0,1,2.38-1,4.12,4.12,0,0,1,2.43,1.14,11.51,11.51,0,0,1,2.13,3,31.83,31.83,0,0,0,2.4,3.89,10.87,10.87,0,0,0,2.91,2.69,8.89,8.89,0,0,0,4.2,1.29,6.59,6.59,0,0,0,5.33-1.66,5.76,5.76,0,0,0,1.68-4.9,6.48,6.48,0,0,0-1.6-3.9,9.55,9.55,0,0,0-3.48-2.4c-1.39-.58-3.25-1.21-5.59-1.91a47.52,47.52,0,0,1-8.1-3.24,19.6,19.6,0,0,1-5.82-4.65,15,15,0,0,1-3.27-6.9,9.89,9.89,0,0,1,.8-6.79,10.06,10.06,0,0,1,5.43-4.44,24.25,24.25,0,0,1,9.35-1.42,24.91,24.91,0,0,1,7.68,1.23,17,17,0,0,1,5.45,3,12.9,12.9,0,0,1,3.2,3.87,9.43,9.43,0,0,1,1.1,3.94,4.63,4.63,0,0,1-1,3.13,3.29,3.29,0,0,1-2.78,1.35,3.41,3.41,0,0,1-2.42-.89,13.45,13.45,0,0,1-2-2.77,13.91,13.91,0,0,0-3.34-4.32q-1.9-1.56-5.84-1.66a8.61,8.61,0,0,0-5.66,1.46,3.87,3.87,0,0,0-1.64,3.85,5.11,5.11,0,0,0,1.12,2.49,8.72,8.72,0,0,0,2.28,1.87,17.19,17.19,0,0,0,2.74,1.28c.9.32,2.39.79,4.43,1.41a69.51,69.51,0,0,1,6.9,2.31,21.3,21.3,0,0,1,5.24,2.9,11.75,11.75,0,0,1,3.39,4.21A15.25,15.25,0,0,1,134.91,219.31Z" transform="translate(-29.99 -30.8)"/><path class="e" d="M151.47,190.65q-.34,8.49-.79,16.92c6.07-6.75,12.71-13.57,19.7-20.34a21.44,21.44,0,0,1,2.56-2.18,4.83,4.83,0,0,1,2.63-.74,4.06,4.06,0,0,1,3.21,1.12,3.3,3.3,0,0,1,.84,2.91,7.52,7.52,0,0,1-2.77,4.24c-4.35,3.83-8.57,7.69-12.61,11.54a149.24,149.24,0,0,1,8.45,18.47,14.66,14.66,0,0,1,.89,3.28,7,7,0,0,1-.18,2.81,6.32,6.32,0,0,1-1.68,2.81,4.73,4.73,0,0,1-2.87,1.45,2.67,2.67,0,0,1-2.28-.57,4.72,4.72,0,0,1-1.17-2.1l-.72-2.47a152.24,152.24,0,0,0-7.17-17q-3.87,3.91-7.44,7.81c-.2,3.3-.4,6.59-.62,9.88a8.22,8.22,0,0,1-1.34,4.47,3.4,3.4,0,0,1-2.73,1.51,2.79,2.79,0,0,1-1.77-.62,4.2,4.2,0,0,1-1.31-1.75,7.26,7.26,0,0,1-.41-2.12c0-.8-.06-2,0-3.49q.1-17.79.17-35.81a6.72,6.72,0,0,1,1.3-4.47,4.89,4.89,0,0,1,7-.05A6.19,6.19,0,0,1,151.47,190.65Z" transform="translate(-29.99 -30.8)"/><path class="e" d="M182.07,224l1.29-1.28a21.72,21.72,0,0,1-.61-6.59,42.08,42.08,0,0,1,1.28-8.27,40.69,40.69,0,0,1,3.78-9.92,29.52,29.52,0,0,1,6.1-7.83,27.12,27.12,0,0,1,8.27-5.11,32.28,32.28,0,0,1,10.16-2.1,29.43,29.43,0,0,1,8,.52A13,13,0,0,1,226,186l1.14-.87a40.61,40.61,0,0,1,4.08-2.8,5.9,5.9,0,0,1,2.45-.82,1.58,1.58,0,0,1,1.46.47,1.53,1.53,0,0,1,0,1.56c-.46,1.12-2.07,2.65-4.77,4.64-.61.44-1.21.89-1.82,1.35,1.19,3.4.31,7.72-2.69,13.14a52.65,52.65,0,0,1-6.33,9,69.35,69.35,0,0,1-7.85,7.68,57.52,57.52,0,0,1-8.41,5.9,30.67,30.67,0,0,1-8.44,3.36c-4.62,1-7.69.32-9.6-2.11l-.86.93-1.87,1.87a15.39,15.39,0,0,1-1.8,1.56,3.78,3.78,0,0,1-1.65.74.88.88,0,0,1-1.06-.52,2.11,2.11,0,0,1,0-1.53,8,8,0,0,1,1.35-2.5A30.56,30.56,0,0,1,182.07,224Zm9.29-8.91c8.34-7.79,17.26-15.44,26.46-22.77a5.77,5.77,0,0,0-3-1.84,12,12,0,0,0-4.48-.45,17,17,0,0,0-7.46,2.35,19.2,19.2,0,0,0-6,5.85,31.57,31.57,0,0,0-4.07,8.82A29.52,29.52,0,0,0,191.36,215.06Zm27.77-18.29c-9.29,7.34-18.28,15-26.67,22.82,1.16,1.78,3,2.41,5.69,1.91a17.87,17.87,0,0,0,6.32-2.76,33.43,33.43,0,0,0,6.75-6,37.6,37.6,0,0,0,5.85-8.79A18.75,18.75,0,0,0,219.13,196.77Z" transform="translate(-29.99 -30.8)"/></svg>