<svg xmlns="http://www.w3.org/2000/svg" xmlns:xlink="http://www.w3.org/1999/xlink" viewBox="0 0 296.21 210.91"><defs><style>.a{fill:#2f361f;}.b{fill:url(#a);}.c{fill:url(#b);}.d{fill:url(#c);}.e{fill:none;}</style><linearGradient id="a" x1="100.8" y1="31.33" x2="114.87" y2="61.51" gradientUnits="userSpaceOnUse"><stop offset="0" stop-color="#dfd25f"/><stop offset="0.11" stop-color="#dfd25f"/><stop offset="0.33" stop-color="#d9ce5d"/><stop offset="0.85" stop-color="#8b9f43"/><stop offset="1" stop-color="#8b9f43"/></linearGradient><linearGradient id="b" x1="134.1" y1="53.23" x2="150.97" y2="62.97" gradientUnits="userSpaceOnUse"><stop offset="0" stop-color="#8b9f43"/><stop offset="0.15" stop-color="#8b9f43"/><stop offset="0.4" stop-color="#869941"/><stop offset="0.95" stop-color="#2f361f"/><stop offset="1" stop-color="#2f361f"/></linearGradient><linearGradient id="c" x1="101.28" y1="53.2" x2="188.03" y2="239.24" gradientUnits="userSpaceOnUse"><stop offset="0" stop-color="#e4a554"/><stop offset="0.11" stop-color="#e8854c"/><stop offset="0.52" stop-color="#ee5541"/><stop offset="0.87" stop-color="#ee5541"/></linearGradient></defs><path class="a" d="M149.28,235.45l9.18,5.6a14.94,14.94,0,0,1-12.37-3.63l4.14,3.7a11.84,11.84,0,0,1-7.07-3.72l1,4.23a6.5,6.5,0,0,1-3.11-5.5,19.79,19.79,0,0,1-9.68,5.58l7.3-6.45a35.76,35.76,0,0,1-17.33,5.94,15,15,0,0,1,9.19-4.86c4.08-.53,8-3.43,12.1-2.94A18.55,18.55,0,0,1,149.28,235.45Z" transform="translate(39.73 -30.8)"/><path class="b" d="M138.25,50.6c-3.88-2.72-9-6.27-13.68-7.06-7.61-1.3-14.9-1.13-22.62-1.31A48,48,0,0,0,79.8,47.1a.25.25,0,0,1-.31-.37A45.09,45.09,0,0,1,99.36,32.15a21.82,21.82,0,0,1,11.6-1c13,2.4,22.89,7,27.29,19.43" transform="translate(39.73 -30.8)"/><path class="c" d="M145.49,72.47a54.37,54.37,0,0,1,3.79-26.61c-2-2.6-6.41-4-9.41-2.62-3.23,7.85-3.3,20.94-1.44,29.23C140.76,72.58,143.16,72.36,145.49,72.47Z" transform="translate(39.73 -30.8)"/><path class="d" d="M145.94,71.61c26.34-9.89,58.34-13.89,82.34,5.11,19,14,27,35,28,57,2,33-11,67-37,90-10,8-20,14-33,16-14,2-27,0-41-3h-9c-17,3-33,4-49-1-11-4-20-11-29-19-22-23-30-54-28-85a103.62,103.62,0,0,1,11-38c5-9,12-16,21-22,25-15,53-6,77.67.08A10.52,10.52,0,0,0,145.94,71.61Z" transform="translate(39.73 -30.8)"/><path class="e" d="M69.2,212.56c18.16,10.76,24,10.83,34.62,11.65,12.44.95,19.19-3.82,37.55-3.07,21.64.88,21.55,4.37,34,4,10.7-.33,24,2.67,43.11-12.12" transform="translate(39.73 -30.8)"/><path class="e" d="M39.51,156.77q99.67,2.31,201.32-3.49l4-.24" transform="translate(39.73 -30.8)"/><path class="e" d="M-38.8,182.25a.57.57,0,0,1-.93,0" transform="translate(39.73 -30.8)"/></svg>