<svg xmlns="http://www.w3.org/2000/svg" viewBox="0 0 202.32 226.82"><defs><style>.a{fill:none;stroke:#fff;stroke-miterlimit:10;stroke-width:3px;}</style></defs><path class="a" d="M21.83,227.34C21.36,228,85.44,75,85.44,75H190.51a1.45,1.45,0,0,1,1.42,1.16l29.2,143a.63.63,0,0,1-.63.76H207a.89.89,0,0,1-.86-.62l-4.1-13.17a.59.59,0,0,0-.57-.42H158.16a1.19,1.19,0,0,0-1.17,1.4l2.19,12.12a.6.6,0,0,1-.59.69h-14a1.2,1.2,0,0,1-1.16-.9L139,201.24" transform="translate(-20.32 -2.02)"/><path class="a" d="M191.69,75,128.76,226.83a.84.84,0,0,1-.77.51h-17.1a1.19,1.19,0,0,1-1.12-1.59l5.87-16.61a.68.68,0,0,0-.64-.91H50.35a2.41,2.41,0,0,0-2.15,1.35l-8.28,17a1.42,1.42,0,0,1-1.26.79H21.83" transform="translate(-20.32 -2.02)"/><path class="a" d="M81.6,111.62a44.66,44.66,0,0,0-10,21.66c-.54,3.3-.33,7.38,2.57,9a6,6,0,0,0,5.92-.35,14.82,14.82,0,0,0,4.32-4.39,57.09,57.09,0,0,0,10-23.6C96,104.19,86.22,106.18,81.6,111.62Z" transform="translate(-20.32 -2.02)"/><path class="a" d="M89.56,142.62c.07-.2-.6,1.31-.53,1.11l13.84-34.93a.87.87,0,0,1,.68-.56,9.22,9.22,0,0,1,9.35,6.18,10.09,10.09,0,0,1-4,10.6,13,13,0,0,1-11.56,1.38" transform="translate(-20.32 -2.02)"/><path class="a" d="M123.25,146.49c2.61.52-8.61-1.05-13.21-1.75a.41.41,0,0,1-.32-.55c4.06-11.16,7.82-22.62,11.87-33.8a1.66,1.66,0,0,1,1.67-1.08l13.44,1c.87-.09-2-.15-2-.15" transform="translate(-20.32 -2.02)"/><path class="a" d="M131,148.93c-.08.15.13-.3.05-.14l12.2-36.35a.09.09,0,1,1,.18,0,88.73,88.73,0,0,0,0,35.6.55.55,0,0,0,1,.15,139.6,139.6,0,0,0,13.67-36.43c.06-.28.17-.1-.07.06" transform="translate(-20.32 -2.02)"/><path class="a" d="M115.9,126.61c4.27.39,17.22,1.29,14.27,1.29" transform="translate(-20.32 -2.02)"/><path class="a" d="M139.32,158.91c-.26,0,2.36-.8.7-.28-12.21,3.86-25.7-2.11-38.19-4.95s-25.57-5.23-38-2.16c-.16,0,.9-.24.75-.18" transform="translate(-20.32 -2.02)"/><path class="a" d="M89.06,51a57.89,57.89,0,0,1-3.65,23.6" transform="translate(-20.32 -2.02)"/><path class="a" d="M81.62,67.6A17.79,17.79,0,0,0,84.24,78" transform="translate(-20.32 -2.02)"/><path class="a" d="M75.64,32.58c-2.65-7.4-2.21-16.3,2.78-22.37a19.34,19.34,0,0,1,19.85-6,21.65,21.65,0,0,1,14.55,15.12,24.6,24.6,0,0,1-4.3,20.77,27.2,27.2,0,0,1-9.07,7.61c-2.51,1.32-7,3.64-10,3.12s-6.12-5.4-7.9-7.72A39.47,39.47,0,0,1,75.64,32.58Z" transform="translate(-20.32 -2.02)"/><path class="a" d="M74,28.35c-6,4.87-10.69,14.8-8.85,22.31S72.94,65.94,80.5,67.5c4,.81,8.88-2.89,11.81-5.71a13,13,0,0,0,3.78-11.1" transform="translate(-20.32 -2.02)"/></svg>