<svg xmlns="http://www.w3.org/2000/svg" viewBox="0 0 224.65 131.34"><defs><style>.a{fill:none;stroke:#fff;stroke-miterlimit:10;stroke-width:3px;}</style></defs><path class="a" d="M43.73,116.43l-31.11,35.3c-.13,0,0,.06.12,0" transform="translate(-11.07 -32.16)"/><path class="a" d="M216.29,131.62c1.56-1.59,3.29-3.63,4.85-5.22a.1.1,0,0,0,0-.12c-4.65-8-13.3-14.46-22.51-14.65a.09.09,0,0,0-.08.15l35.63,44-.46-.57" transform="translate(-11.07 -32.16)"/><path class="a" d="M143.57,102.45H88.93c-.31-.08.31.07,0,0" transform="translate(-11.07 -32.16)"/><line class="a" x1="195.88" y1="60.45" x2="195.88" y2="37.03"/><path class="a" d="M187.77,36.46c.2,7.59-1.06,16.21,2.37,23s12.51,11.39,19.92,9.73c6.28-1.41,12.75-6.72,14.21-13s.38-12.35.38-19.87" transform="translate(-11.07 -32.16)"/><ellipse class="a" cx="195.13" cy="4.06" rx="18.5" ry="2.56"/><ellipse class="a" cx="195.31" cy="17.78" rx="18.66" ry="2.99"/><path class="a" d="M216.44,99.89c5.3.55,8.83,1.54,8.83,2.67,0,1.74-8.36,3.15-18.67,3.15s-18.66-1.41-18.66-3.15c0-1.19,3.92-2.22,9.7-2.76a11.25,11.25,0,0,0,6.18-2.33,8.8,8.8,0,0,0,3.09-5.72,8,8,0,0,0,2.41,5.88C210.85,99.07,214.24,99.77,216.44,99.89Z" transform="translate(-11.07 -32.16)"/><ellipse class="a" cx="146.37" cy="70.29" rx="14.97" ry="3.96"/><path class="a" d="M47.2,105.15c-.12.23.62-.78.5-.55l-8.29,9a1,1,0,0,0,.62,1.67c2.76.35,5.54.81,8.29,1.15a3.4,3.4,0,0,0,2.88-1c2.69-2.85,5.81-5.58,8.36-8.47.16-.18-.46.54-.31.34" transform="translate(-11.07 -32.16)"/><path class="a" d="M52.54,106.2l.36-.43c-2.93,3.2-5.75,6.31-8.68,9.51" transform="translate(-11.07 -32.16)"/><ellipse class="a" cx="116.32" cy="106.77" rx="71.88" ry="23.06"/><ellipse class="a" cx="117.02" cy="106.5" rx="55.64" ry="14.6"/></svg>