<svg xmlns="http://www.w3.org/2000/svg" viewBox="0 0 235.38 196.62"><defs><style>.a{fill:none;stroke:#fff;stroke-miterlimit:10;stroke-width:3px;}</style></defs><path class="a" d="M145.69,116.35l-12-1.78h0l-121.09,13a.12.12,0,0,0,0,.23L89.37,156h.06l147-26a.12.12,0,0,0,0-.24l-30.81-4" transform="translate(-3.25 -19.2)"/><path class="a" d="M89.4,156v58.25c0,.2,0-.6,0-.41" transform="translate(-3.25 -19.2)"/><path class="a" d="M12.45,127.26v57.49" transform="translate(-3.25 -19.2)"/><path class="a" d="M134.14,114.56V83.73A.74.74,0,0,1,135,83L236.43,98.15a.82.82,0,0,1,.7.8v89.24c-.12.47,0-1.22-.09-.75" transform="translate(-3.25 -19.2)"/><path class="a" d="M135.13,160.22V173.4c0,.27,0-1,0-.69" transform="translate(-3.25 -19.2)"/><polyline class="a" points="8.79 118.55 86.15 150 233.88 120.99"/><line class="a" x1="108.23" y1="97.74" x2="206.81" y2="115.52"/><path class="a" d="M159.39,105.68a86.24,86.24,0,0,1,40.14,7,18.45,18.45,0,0,1,6.28,4c1.67,1.8,2.6,4.41,1.74,6.67s-3.4,3.77-6,4.16a23,23,0,0,1-7.7-.55c-13.2-2.47-26.45-4.78-39.62-7.4-4.3-.86-11.06-2.12-8.56-7.67C147.88,107.06,154.67,106,159.39,105.68Z" transform="translate(-3.25 -19.2)"/><path class="a" d="M200,148a85.84,85.84,0,0,1-157.66,2.1" transform="translate(-3.25 -19.2)"/><path class="a" d="M198.62,79.13a85.43,85.43,0,0,1,5.08,14.13" transform="translate(-3.25 -19.2)"/><path class="a" d="M40.45,83.73C52.73,51.37,84,29.28,120.69,29.28a85.41,85.41,0,0,1,38.67,9.19" transform="translate(-3.25 -19.2)"/><path class="a" d="M210,70a1,1,0,0,1,.4,1.65,33.17,33.17,0,0,1-21.24,7.53c-17.66,0-32-13.36-32-29.84,0-13.47,9.56-24.85,22.7-28.56a.72.72,0,0,1,.89.85,37.9,37.9,0,0,0,5.69,29C192.18,58.89,200.24,67.65,210,70Z" transform="translate(-3.25 -19.2)"/><path class="a" d="M21.36,126.61a34.9,34.9,0,1,1,68-10.94,33.36,33.36,0,0,1-.19,3.62" transform="translate(-3.25 -19.2)"/><path class="a" d="M8,123.62" transform="translate(-3.25 -19.2)"/><path class="a" d="M14.32,122.17" transform="translate(-3.25 -19.2)"/><path class="a" d="M6,108.39" transform="translate(-3.25 -19.2)"/><path class="a" d="M13,108.39" transform="translate(-3.25 -19.2)"/><path class="a" d="M20.23,76.5" transform="translate(-3.25 -19.2)"/><path class="a" d="M27.3,83.57" transform="translate(-3.25 -19.2)"/><path class="a" d="M37.18,68.51" transform="translate(-3.25 -19.2)"/><path class="a" d="M40.45,77.55" transform="translate(-3.25 -19.2)"/><path class="a" d="M57.3,64.35" transform="translate(-3.25 -19.2)"/><path class="a" d="M56.63,74.83" transform="translate(-3.25 -19.2)"/><path class="a" d="M75.12,69.2" transform="translate(-3.25 -19.2)"/><path class="a" d="M70.21,77.23" transform="translate(-3.25 -19.2)"/><path class="a" d="M87.73,81.09" transform="translate(-3.25 -19.2)"/><path class="a" d="M82.49,86.34" transform="translate(-3.25 -19.2)"/><path class="a" d="M98.25,97.2" transform="translate(-3.25 -19.2)"/><path class="a" d="M92,99.29" transform="translate(-3.25 -19.2)"/><path class="a" d="M102.42,112.39" transform="translate(-3.25 -19.2)"/><path class="a" d="M95.07,113.35" transform="translate(-3.25 -19.2)"/><path class="a" d="M9.72,90c.2.06-.32-.17-.14-.07l7.7,3.91c.11.06-.12,0,0,0" transform="translate(-3.25 -19.2)"/><path class="a" d="M31.89,71.28c.13.16-.19-.31-.08-.13l4.49,7.37c.06.11-.09-.09,0,0" transform="translate(-3.25 -19.2)"/><path class="a" d="M50,66.32c0,.21,0-.36,0-.15l-.22,8.63c0,.12,0-.12,0,0" transform="translate(-3.25 -19.2)"/><path class="a" d="M64.66,67c0,.21,0-.36,0-.16l-1.25,8.55c0,.12,0-.13,0,0" transform="translate(-3.25 -19.2)"/><path class="a" d="M79.4,72.23c-.07.2.19-.31.08-.13l-4.34,7.46c-.07.11,0-.12,0,0" transform="translate(-3.25 -19.2)"/><path class="a" d="M92.33,82.25c-.15.15.3-.21.13-.09l-7.06,5c-.1.07.08-.09,0,0" transform="translate(-3.25 -19.2)"/><path class="a" d="M92.33,97.43c.17-.11-.32.14-.14.06l7.62-3.36c.11,0-.1.07,0,0" transform="translate(-3.25 -19.2)"/><path class="a" d="M96.26,109.13c.2-.07-.36.07-.15,0l8.49-1.54c.12,0-.11,0,0,0" transform="translate(-3.25 -19.2)"/><path class="a" d="M19.2,79.73c.17.13-.26-.26-.11-.11l6,6.18c.09.08-.1-.07,0,0" transform="translate(-3.25 -19.2)"/><path class="a" d="M5,105.09c.21,0-.36,0-.15,0l8.59.83c.12,0-.12,0,0,0" transform="translate(-3.25 -19.2)"/><path class="a" d="M5,119.19c.2-.07-.36,0-.15,0L13.37,118c.12,0-.12,0,0,0" transform="translate(-3.25 -19.2)"/></svg>