<svg xmlns="http://www.w3.org/2000/svg" viewBox="0 0 235.38 196.62"><defs><style>.cls-1{fill:none;stroke:#fff;stroke-miterlimit:10;stroke-width:3px;}</style></defs><g id="Layer_2" data-name="Layer 2"><g id="Sov"><path class="cls-1" d="M142.44,97.15l-12-1.79h0l-121.09,13a.12.12,0,0,0,0,.24l76.84,28.24h.06l147-26a.12.12,0,0,0,0-.24l-30.81-4"/><path class="cls-1" d="M86.15,136.84v58.25c0,.19,0-.6,0-.41"/><path class="cls-1" d="M9.2,108.06v57.49"/><path class="cls-1" d="M130.89,95.36V64.53a.74.74,0,0,1,.85-.73L233.18,79a.82.82,0,0,1,.7.8V169c-.12.47,0-1.22-.09-.75"/><path class="cls-1" d="M131.88,141V154.2c0,.27,0-1,0-.69"/><polyline class="cls-1" points="8.79 118.55 86.15 150 233.88 120.99"/><line class="cls-1" x1="108.23" y1="97.74" x2="206.81" y2="115.52"/><path class="cls-1" d="M156.14,86.48a86.26,86.26,0,0,1,40.14,7,18.58,18.58,0,0,1,6.28,4c1.67,1.81,2.6,4.41,1.74,6.68s-3.4,3.77-6,4.16a23.28,23.28,0,0,1-7.7-.55c-13.2-2.47-26.45-4.78-39.62-7.41-4.3-.85-11.07-2.11-8.56-7.66C144.63,87.86,151.42,86.79,156.14,86.48Z"/><path class="cls-1" d="M196.73,128.76a85.85,85.85,0,0,1-157.67,2.1"/><path class="cls-1" d="M195.37,59.93a85.11,85.11,0,0,1,5.08,14.13"/><path class="cls-1" d="M37.2,64.53c12.28-32.36,43.58-54.45,80.24-54.45a85.41,85.41,0,0,1,38.67,9.19"/><path class="cls-1" d="M206.76,50.75a1,1,0,0,1,.4,1.65,33.23,33.23,0,0,1-21.24,7.53c-17.66,0-32-13.36-32-29.84,0-13.47,9.56-24.85,22.7-28.56a.72.72,0,0,1,.89.84,37.91,37.91,0,0,0,5.69,29C188.93,39.68,197,48.45,206.76,50.75Z"/><path class="cls-1" d="M18.11,107.41a34.9,34.9,0,1,1,68-10.94,36.1,36.1,0,0,1-.19,3.62"/><path class="cls-1" d="M6.47,70.8c.2.06-.32-.17-.14-.07L14,74.64c.11,0-.12,0,0,0"/><path class="cls-1" d="M28.64,52.08c.13.16-.19-.31-.08-.13l4.49,7.37c.06.11-.09-.09,0,0"/><path class="cls-1" d="M46.71,47.12c0,.21,0-.36,0-.15l-.22,8.62c0,.13,0-.12,0,0"/><path class="cls-1" d="M61.41,47.8c0,.2.05-.36,0-.16l-1.25,8.54c0,.12,0-.12,0,0"/><path class="cls-1" d="M76.15,53c-.07.2.19-.31.08-.13l-4.34,7.46c-.07.1,0-.12,0,0"/><path class="cls-1" d="M89.08,63.05c-.15.14.3-.21.13-.09l-7.06,5c-.1.07.08-.09,0,0"/><path class="cls-1" d="M89.08,78.22c.17-.11-.32.15-.14.06l7.62-3.36c.11,0-.1.07,0,0"/><path class="cls-1" d="M93,89.93c.2-.07-.36.06-.15,0l8.49-1.55c.12,0-.11,0,0,0"/><path class="cls-1" d="M16,60.53c.17.12-.26-.26-.11-.11l6,6.17c.09.09-.1-.06,0,0"/><path class="cls-1" d="M1.7,85.89c.21,0-.36,0-.15,0l8.59.83c.12,0-.12,0,0,0"/><path class="cls-1" d="M1.72,100c.2-.06-.36.06-.15,0l8.55-1.23c.12,0-.12,0,0,0"/></g></g></svg>