<svg xmlns="http://www.w3.org/2000/svg" viewBox="0 0 225.62 141.64"><defs><style>.a{fill:none;stroke:#fff;stroke-miterlimit:10;stroke-width:3px;}</style></defs><path class="a" d="M72.39,164,60.27,133.1a.44.44,0,0,1,.41-.6h157.1a.68.68,0,0,1,.64.89l-11.08,32" transform="translate(-9.26 -28.99)"/><path class="a" d="M202.17,132.5V78.71a.5.5,0,0,0-.49-.51l-39.39-1.13a1.12,1.12,0,0,0-1,.54L143,107.82a1.88,1.88,0,0,0-.27,1v23.7" transform="translate(-9.26 -28.99)"/><path class="a" d="M164.66,77.05V60a.94.94,0,0,1,.33-.72c1.32-1.13,6.42-4.83,11.57.08a.7.7,0,0,1,.22.51V77.48" transform="translate(-9.26 -28.99)"/><circle class="a" cx="159.48" cy="70.08" r="8.04"/><circle class="a" cx="180.68" cy="70.08" r="8.04"/><circle class="a" cx="81.07" cy="118.66" r="6.06"/><circle class="a" cx="102.51" cy="118.66" r="6.06"/><line class="a" x1="133.5" y1="95.51" x2="192.91" y2="95.51"/><line class="a" x1="149.04" y1="53.56" x2="192.91" y2="55.05"/><line class="a" x1="53.35" y1="110.07" x2="207.22" y2="110.07"/><path class="a" d="M11.38,158.62c.17-.09-.78.33-.6.25,10.41-4.59,22.45-3,33.53-.46s22.23,6.12,33.58,5.21,22.32-6.36,33.84-6.61c11.21-.24,21.84,4.43,32.61,7.53a120.86,120.86,0,0,0,89-9.19c.36-.19-.91.5-.56.29" transform="translate(-9.26 -28.99)"/><path class="a" d="M68,94.52c-1.16,2,1.64-3.2,2.71-4.67a1.66,1.66,0,0,1,2.18-.46L76,91.22a.5.5,0,0,0,.75-.48c-.25-2.23,1.26-5.39,3.54-5.13,4,.46,9.69,3.46,6.39,1.93" transform="translate(-9.26 -28.99)"/><path class="a" d="M187.7,31.26a45.87,45.87,0,0,0,8.81-.75.63.63,0,0,1,.76.45l.81,3.59a.14.14,0,0,0,.23.13c1.57-1.26,3.51-2.47,5.35-1.76,1.35.53,2.11,1.93,2.92,3.13s5.61,3.05,3.5,2.18" transform="translate(-9.26 -28.99)"/></svg>