<svg xmlns="http://www.w3.org/2000/svg" viewBox="0 0 229.02 173.91"><defs><style>.a{fill:none;stroke:#fff;stroke-miterlimit:10;stroke-width:3px;}</style></defs><path class="a" d="M72,174.45" transform="translate(-14.84 -17.76)"/><path class="a" d="M72,174.45H55.12a2.8,2.8,0,0,0-1.07.21L16.42,189.91a.13.13,0,0,0,0,.26H236.78a0,0,0,0,0,0-.09l-34.39-15.17a5.35,5.35,0,0,0-2.19-.46H117.6" transform="translate(-14.84 -17.76)"/><path class="a" d="M190.32,22.8,215,59.49a.65.65,0,0,1-.54,1h-14a.3.3,0,0,0-.25.45l29,45.86a.8.8,0,0,1-.68,1.23H210.41a.26.26,0,0,0-.22.4l32.05,47.82a.68.68,0,0,1-.57,1.06H138.2a.81.81,0,0,1-.67-1.25l31.91-47.6a.28.28,0,0,0-.23-.43H150.84a.66.66,0,0,1-.56-1l29.37-46.45s0-.07,0-.07H165.76A1,1,0,0,1,165,59l24.49-36.4C190.12,21.3,190,22.75,190.32,22.8Z" transform="translate(-14.84 -17.76)"/><path class="a" d="M167.8,54.81,157.52,39.65a.62.62,0,0,0-1,0l-20.8,29.9a.47.47,0,0,0,.39.75h12.36l-24.82,38a.55.55,0,0,0,.46.86h14.79a.6.6,0,0,1,.5,1l-26.56,38.31a.63.63,0,0,0,.52,1H142" transform="translate(-14.84 -17.76)"/><path class="a" d="M167.8,54.81" transform="translate(-14.84 -17.76)"/><line class="a" x1="160.98" y1="48.87" x2="156.82" y2="42.74"/><path class="a" d="M182.83,157.32V168a.52.52,0,0,0,.53.52H197a.52.52,0,0,0,.52-.52V157.32H146.83v5a.59.59,0,0,0,.59.58h12.45a.25.25,0,0,0,.26-.24l.34-5.35" transform="translate(-14.84 -17.76)"/><path class="a" d="M67.06,156.89,73,178.11a5.74,5.74,0,0,0,5.52,4.2H109.3a8.15,8.15,0,0,0,7.92-6.25l4.7-19.73a.4.4,0,0,0-.31-.48,157.34,157.34,0,0,0-53.84-.1A.91.91,0,0,0,67.06,156.89Z" transform="translate(-14.84 -17.76)"/><path class="a" d="M89.21,152.88a23.48,23.48,0,0,1-.65-6.12A7.84,7.84,0,0,1,91,141.28a4.8,4.8,0,0,1,5.7-.52,6.71,6.71,0,0,1,2.18,3.39,21.55,21.55,0,0,1,1.14,8.39" transform="translate(-14.84 -17.76)"/><path class="a" d="M93.25,152.13a18.21,18.21,0,0,1-.78-6.24,6.13,6.13,0,0,1,3.3-5.06,5.5,5.5,0,0,1,5.61,1.07,9.09,9.09,0,0,1,2.79,5.21,26.81,26.81,0,0,1,.27,6" transform="translate(-14.84 -17.76)"/><path class="a" d="M138.5,85.52a27.61,27.61,0,0,1,7.63-54.14c12,0,21.75,6.94,25.53,17.68" transform="translate(-14.84 -17.76)"/><path class="a" d="M111.44,36c.68.47-1-.64-.3-.2l5.57,3.58-.27-.18" transform="translate(-14.84 -17.76)"/><path class="a" d="M125.16,25.61c.46.69-.69-1-.21-.3l3.85,5.4c-.4-.6.22.32-.19-.27" transform="translate(-14.84 -17.76)"/><path class="a" d="M143,19.82c.07.83-.14-1.18,0-.36l.76,6.58c-.07-.71,0,.39,0-.32" transform="translate(-14.84 -17.76)"/><path class="a" d="M160.52,22.58c-.37.73.51-1.08.16-.33l-2.83,6,.15-.3" transform="translate(-14.84 -17.76)"/><path class="a" d="M175.37,31.79c-.66.49.93-.74.29-.23l-5.19,4.13.26-.2" transform="translate(-14.84 -17.76)"/><path class="a" d="M106.08,52.62c.81.15-1.18-.17-.36,0l6.55.94-.32,0" transform="translate(-14.84 -17.76)"/><path class="a" d="M107.27,72.1c.81-.17-1.16.28-.35.08l6.43-1.57-.32.07" transform="translate(-14.84 -17.76)"/><path class="a" d="M116.3,87.29c.66-.49-.93.74-.29.23l5.18-4.13-.26.2" transform="translate(-14.84 -17.76)"/></svg>